<svg width="400" height="357" viewBox="0 0 430 357" fill="none" xmlns="http://www.w3.org/2000/svg">
<path d="M382.695 242.243C382.695 250.004 382.099 254.891 379.765 260.787C378.206 264.667 376.055 268.004 373.49 270.177C370.423 272.814 366.347 272.039 362.729 272.039C311.349 272.427 259.969 272.815 208.635 273.203C207.353 277.316 204.605 284.842 203.139 288.565C202.727 289.652 202.407 290.507 201.994 291.593C198.147 301.525 194.256 311.378 189.814 320.38L187.753 324.336C186.242 327.439 184.502 330.388 182.807 333.259L171.588 348.933L164.444 356.847L368.774 355.374C376.834 355.374 383.976 355.374 391.396 350.252L395.014 347.768C398.401 345.363 401.608 341.563 404.538 337.839C404.996 337.216 405.454 336.751 405.912 336.053L414.292 322.009C416.903 316.734 419.055 311.301 421.115 305.404C426.473 290.351 430.045 269.014 430 251.322C429.908 211.129 416.49 170.704 393.228 156.583C389.564 154.41 385.671 152.469 381.733 151.925C378.206 151.46 374.863 151.306 371.2 151.306L285.11 151.925C280.485 151.925 277.874 150.296 275.447 144.011C274.577 141.684 273.844 138.58 273.295 135.554C272.654 131.908 272.471 127.174 272.471 122.829L213.489 123.217C213.9 130.899 214.771 137.961 215.641 144.866C216.099 148.28 216.74 151.539 217.335 154.643C218.572 160.773 220.175 166.592 222.051 172.256C222.511 173.651 222.922 174.737 223.426 176.057L226.539 183.429C229.058 188.627 231.805 193.67 235.011 197.706C235.469 198.248 235.653 198.558 236.111 199.102L244.125 207.561C250.17 212.682 255.755 216.715 263.221 216.638L368.179 215.862C370.925 215.862 372.437 216.56 374.178 218.268C374.956 219.119 375.688 219.897 376.375 220.983C378.436 224.01 380.13 227.346 381.229 231.846C381.871 234.639 382.649 238.208 382.695 242.243Z" fill="white"/>
<path d="M144.295 190.024C144.341 199.645 142.692 208.18 140.632 215.708C136.601 230.216 130.695 241.158 123.687 250.856C120.39 255.356 116.315 259.624 111.782 262.961C100.792 271.107 90.9004 269.866 78.1238 270.021C65.4845 270.177 52.8461 270.254 40.2068 270.41L0 356.847C2.88594 357.236 18.2259 356.769 22.4848 356.693L101.662 355.916C113.614 355.76 119.659 355.452 131.564 348.779C143.608 341.951 157.117 328.372 165.635 315.414C166.139 314.56 166.596 313.861 167.146 313.086L170.077 308.507C171.13 306.955 172 305.559 172.962 303.929C173.923 302.222 174.748 300.75 175.663 298.964L178.32 293.92C179.19 292.135 180.059 290.584 180.884 288.722C181.8 286.858 182.533 285.23 183.402 283.212C189.631 269.246 195.08 253.03 198.972 232.932C203.598 208.801 203.918 189.869 203.827 164.651C203.735 139.124 203.46 113.44 203.552 87.9118C205.154 87.5239 236.523 87.5244 239.041 87.4484C290.422 86.982 376.604 86.7486 427.71 83.955C421.344 71.8518 398.311 9.85555 393.548 0.0780941L143.608 0L144.295 190.024Z" fill="white"/>
</svg>
