<svg xmlns="http://www.w3.org/2000/svg" xmlns:xlink="http://www.w3.org/1999/xlink" xml:space="preserve" version="1.1" style="shape-rendering:geometricPrecision; text-rendering:geometricPrecision; image-rendering:optimizeQuality; fill-rule:evenodd; clip-rule:evenodd" viewBox="886 975 6739 4146">
 <!-- <defs>
  <style type="text/css">
   <![CDATA[
    .fil0 {fill:#008491}
    .fil1 {fill:#008491;fill-rule:nonzero}
   ]]>
  </style>
 </defs> -->
 <g id="Слой_x0020_1">
  <metadata id="CorelCorpID_0Corel-Layer"/>
  <g id="_951326248080">
   <path class="fil0" fill="#008491" d="M6884 3213c0,71 -9,116 -45,171 -25,36 -58,66 -99,87 -48,24 -112,17 -168,17 -804,4 -1608,7 -2412,10 -20,38 -62,108 -86,143 -6,10 -11,18 -18,28 -60,91 -121,182 -191,265l-31 37c-24,29 -51,56 -78,83l-175 144 -112 73 3198 -13c126,-1 237,-1 354,-47l56 -24c53,-22 104,-57 149,-91 8,-6 15,-11 22,-17l131 -130c40,-48 74,-99 107,-153 84,-139 139,-336 139,-500 -2,-370 -212,-744 -576,-874 -57,-21 -118,-38 -180,-43 -55,-5 -107,-7 -164,-6l-1348 5c-72,1 -113,-15 -151,-73 -14,-21 -25,-50 -34,-78 -10,-33 -13,-77 -13,-117l-923 3c7,71 20,137 34,200 7,31 17,62 27,91 19,56 44,110 73,162 7,13 14,23 22,36l48 68c40,48 83,94 133,131 7,5 10,8 17,13l126 78c94,48 182,85 298,84l1643 -7c43,0 67,6 94,23 12,7 24,14 34,24 32,28 59,59 76,101 11,26 23,59 23,96z"/>
   <path class="fil0" fill="#008491" d="M3153 2730c1,89 -25,168 -57,237 -63,134 -155,236 -265,325 -52,41 -115,81 -186,112 -173,75 -328,64 -527,65 -198,2 -396,3 -594,4l-629 798c45,4 285,-1 352,-1l1239 -8c187,-1 282,-4 468,-65 189,-63 400,-189 533,-309 9,-7 15,-14 24,-21l46 -42c16,-14 30,-27 45,-43 15,-15 28,-29 42,-46l42 -46c14,-17 27,-31 40,-48 14,-17 26,-33 40,-51 97,-129 182,-279 243,-465 73,-222 77,-397 76,-630 -2,-236 -6,-473 -5,-709 26,-3 516,-4 556,-4 804,-5 2153,-6 2953,-33 -100,-111 -460,-684 -535,-774l-3911 -1 10 1755z"/>
   <path class="fil1" fill="#008491" d="M1246 5108l-360 0 0 -111 96 0 0 -414 -96 0 0 -111 360 0 0 111 -96 0 0 414 96 0 0 111zm682 0l-161 0 -258 -444 0 444 -153 0 0 -636 206 0 213 364 0 -364 153 0 0 636zm705 0l-161 0 -257 -444 0 444 -153 0 0 -636 205 0 213 364 0 -364 153 0 0 636zm740 -318c0,103 -29,184 -86,242 -58,59 -136,89 -236,89 -101,0 -179,-30 -237,-90 -57,-59 -85,-140 -85,-241 0,-102 28,-183 85,-242 58,-60 136,-90 237,-90 100,0 178,30 236,89 57,59 86,140 86,243zm-172 -1c0,-37 -4,-70 -12,-96 -8,-27 -19,-49 -33,-66 -15,-17 -31,-30 -49,-37 -18,-8 -37,-12 -56,-12 -20,0 -39,4 -56,11 -17,7 -33,19 -48,37 -14,17 -25,39 -34,66 -8,27 -12,60 -12,98 0,39 4,71 12,97 8,26 19,47 33,65 14,17 31,30 49,38 18,7 37,11 56,11 20,0 39,-4 57,-12 19,-8 35,-21 48,-38 15,-19 26,-40 33,-65 8,-24 12,-57 12,-97zm828 -317l-229 636 -175 0 -229 -636 173 0 145 431 145 -431 170 0zm-11 636l225 -636 183 0 225 636 -172 0 -41 -129 -211 0 -41 129 -168 0zm383 -245l-69 -211 -68 211 137 0zm444 245l0 -515 -197 0 0 -121 561 0 0 121 -197 0 0 515 -167 0zm764 0l-360 0 0 -111 97 0 0 -414 -97 0 0 -111 360 0 0 111 -96 0 0 414 96 0 0 111zm716 -318c0,103 -28,184 -86,242 -57,59 -136,89 -236,89 -100,0 -179,-30 -236,-90 -58,-59 -86,-140 -86,-241 0,-102 28,-183 86,-242 57,-60 136,-90 236,-90 100,0 179,30 236,89 58,59 86,140 86,243zm-172 -1c0,-37 -4,-70 -12,-96 -8,-27 -19,-49 -33,-66 -14,-17 -30,-30 -48,-37 -19,-8 -37,-12 -57,-12 -20,0 -39,4 -56,11 -16,7 -32,19 -48,37 -14,17 -25,39 -33,66 -9,27 -13,60 -13,98 0,39 4,71 12,97 8,26 19,47 33,65 15,17 31,30 49,38 18,7 37,11 56,11 20,0 39,-4 58,-12 18,-8 34,-21 48,-38 14,-19 25,-40 33,-65 8,-24 11,-57 11,-97zm843 319l-161 0 -258 -444 0 444 -153 0 0 -636 206 0 213 364 0 -364 153 0 0 636zm339 11c-50,0 -95,-5 -134,-14 -38,-9 -74,-21 -107,-35l0 -151 15 0c33,27 70,47 110,62 40,14 79,22 117,22 10,0 22,-1 38,-3 15,-2 28,-5 37,-10 12,-4 22,-11 30,-20 8,-9 12,-20 12,-34 0,-16 -7,-29 -20,-39 -13,-10 -29,-17 -47,-22 -22,-5 -46,-11 -72,-16 -26,-5 -50,-11 -72,-19 -52,-17 -89,-40 -111,-70 -22,-29 -33,-66 -33,-110 0,-59 26,-108 79,-145 52,-36 118,-55 197,-55 40,0 79,4 118,12 39,7 74,18 105,31l0 145 -14 0c-25,-20 -55,-37 -91,-51 -35,-13 -72,-20 -109,-20 -15,0 -28,1 -39,3 -12,2 -24,5 -37,11 -10,4 -19,11 -27,20 -7,9 -11,19 -11,30 0,16 6,29 18,39 12,9 35,18 70,25 22,5 43,10 64,14 21,5 43,11 66,19 47,16 81,38 103,64 23,27 34,63 34,107 0,63 -26,114 -78,152 -52,39 -122,58 -211,58z"/>
  </g>
 </g>
</svg>